<svg width="20" height="20" viewBox="0 0 20 20" fill="none" xmlns="http://www.w3.org/2000/svg">
    <path d="M9.66667 12V13.6667V12ZM4.66667 17H14.6667C15.1087 17 15.5326 16.8244 15.8452 16.5118C16.1577 16.1993 16.3333 15.7754 16.3333 15.3333V10.3333C16.3333 9.89131 16.1577 9.46738 15.8452 9.15482C15.5326 8.84226 15.1087 8.66667 14.6667 8.66667H4.66667C4.22464 8.66667 3.80072 8.84226 3.48816 9.15482C3.17559 9.46738 3 9.89131 3 10.3333V15.3333C3 15.7754 3.17559 16.1993 3.48816 16.5118C3.80072 16.8244 4.22464 17 4.66667 17ZM13 8.66667V5.33333C13 4.44928 12.6488 3.60143 12.0237 2.97631C11.3986 2.35119 10.5507 2 9.66667 2C8.78261 2 7.93477 2.35119 7.30964 2.97631C6.68452 3.60143 6.33333 4.44928 6.33333 5.33333V8.66667H13Z" stroke="#96A7AF" stroke-width="2" stroke-linecap="round" stroke-linejoin="round"/>
</svg>
